#N canvas 1257 358 550 328 12;
#X obj 167 179 oggread~;
#X msg 192 95 start;
#X msg 256 96 stop;
#X msg 315 96 resume;
#X obj 168 243 dac~;
#X obj 70 26 r open;
#X obj 180 23 r start;
#X obj 256 27 r stop;
#X obj 335 25 r resume;
#X obj 70 61 bng 15 250 50 0 empty empty empty 17 7 0 10 -262144 -1
-1;
#X obj 190 64 bng 15 250 50 0 empty empty empty 17 7 0 10 -262144 -1
-1;
#X obj 257 61 bng 15 250 50 0 empty empty empty 17 7 0 10 -262144 -1
-1;
#X obj 321 61 bng 15 250 50 0 empty empty empty 17 7 0 10 -262144 -1
-1;
#X msg 11 130 open /mnt/sdcard/test.ogg;
#X floatatom 286 222 5 0 0 0 - - -;
#X obj 286 283 s timer;
#X obj 332 164 s ONSTART;
#X connect 0 0 4 0;
#X connect 0 1 4 1;
#X connect 0 2 14 0;
#X connect 1 0 0 0;
#X connect 1 0 16 0;
#X connect 2 0 0 0;
#X connect 3 0 0 0;
#X connect 5 0 9 0;
#X connect 6 0 10 0;
#X connect 7 0 11 0;
#X connect 8 0 12 0;
#X connect 9 0 13 0;
#X connect 10 0 1 0;
#X connect 11 0 2 0;
#X connect 12 0 3 0;
#X connect 13 0 0 0;
#X connect 14 0 15 0;
